<svg xmlns="http://www.w3.org/2000/svg" viewBox="0 0 256 256">
<rect width="256" height="256" rx="58" fill="#ea580c"/><circle cx="128" cy="128" r="88" fill="#fff7ed"/>
<path d="M72 112h92c7 0 12 5 12 12v15c0 28-22 50-50 50h-4c-28 0-50-22-50-50v-27z" fill="#7c2d12"/>
<path d="M164 125h15c14 0 25 11 25 25s-11 25-25 25h-17" fill="none" stroke="#7c2d12" stroke-width="12"/>
<path d="M91 92c-5-14 8-22 3-34M119 88c-5-14 8-22 3-34M147 92c-5-14 8-22 3-34" fill="none" stroke="#ea580c" stroke-width="9" stroke-linecap="round"/>
<text x="128" y="218" text-anchor="middle" font-family="Arial" font-size="25" font-weight="700" fill="#7c2d12">TOW STAR</text></svg>